<svg width="25" height="36" viewBox="0 0 25 36" fill="none" xmlns="http://www.w3.org/2000/svg">
<path d="M3.90826 28.1283C3.90826 28.1283 2.90825 24 4.90825 22M4.90825 22C6.40825 20 11.9083 20 7.40826 25.4999C7.74007 25.7369 8.1258 26.0818 8.46194 26.5M4.90825 22V16.5M8.40826 30.4999C9.83944 29.0688 9.30768 27.5522 8.46194 26.5M8.90826 1C6.10827 1 4.90825 2.83333 4.90825 4V16.5M8.90826 1C11.7083 1 20.2416 1 23.9083 1V22M8.90826 1V18M23.9083 22H11.4083M23.9083 22C22.9083 23 22.4083 23.75 22.4083 24.4375C22.4083 25.125 22.9083 25.75 23.9083 26.5H8.46194M4.90825 16.5C3.40825 16.8334 1.49044 19.5068 1.40824 20C0.908255 23 0.408233 30.4999 2.90828 32C3.07495 32.1667 3.30828 32.6 2.90828 35H11.9083V31C12.5749 30.8333 13.9083 30.6 13.9083 29" stroke="black" stroke-width="2" stroke-linecap="round" stroke-linejoin="round"/>
<path d="M10.4083 24.5H12.4083H14.4083M15.9083 24.5H16.9083M18.4083 24.5H21.9083" stroke="black" stroke-linecap="round"/>
<path d="M15.2618 4.64645C15.0666 4.45118 14.75 4.45118 14.5547 4.64645L11.3727 7.82843C11.1775 8.02369 11.1775 8.34027 11.3727 8.53553C11.568 8.7308 11.8846 8.7308 12.0798 8.53553L14.9083 5.70711L17.7367 8.53553C17.932 8.7308 18.2485 8.7308 18.4438 8.53553C18.6391 8.34027 18.6391 8.02369 18.4438 7.82843L15.2618 4.64645ZM15.4083 14V5H14.4083V14H15.4083Z" fill="black"/>
<path d="M17.5547 19.3536C17.75 19.5488 18.0666 19.5488 18.2618 19.3536L21.4438 16.1716C21.6391 15.9763 21.6391 15.6597 21.4438 15.4645C21.2485 15.2692 20.932 15.2692 20.7367 15.4645L17.9083 18.2929L15.0798 15.4645C14.8846 15.2692 14.568 15.2692 14.3727 15.4645C14.1775 15.6597 14.1775 15.9763 14.3727 16.1716L17.5547 19.3536ZM18.4083 19V10H17.4083V19H18.4083Z" fill="black"/>
</svg>
