<svg width="59" height="70" viewBox="0 0 59 70" fill="none" xmlns="http://www.w3.org/2000/svg">
<path d="M47.9984 41.8695C38.0879 39.1616 18.6953 39.2425 11 41.1584" stroke="#D9D9D9" stroke-width="2" stroke-linecap="round"/>
<path d="M48 30.8992C38.0895 28.1912 18.6969 28.2721 11.0016 30.1881" stroke="#D9D9D9" stroke-width="2" stroke-linecap="round"/>
<path d="M47.9999 19.8992C38.0895 17.1912 18.6968 17.2721 11.0015 19.1881" stroke="#D9D9D9" stroke-width="2" stroke-linecap="round"/>
<path d="M4 4H55C56.1046 4 57 4.89543 57 6V66C57 67.1046 56.1046 68 55 68H4C2.89543 68 2 67.1046 2 66V6C2 4.89543 2.89543 4 4 4Z" stroke="#737373" stroke-width="4"/>
<path d="M8 0H15.5H23V31L15.5 25L8 31V0Z" fill="#D9D9D9"/>
</svg>
