<svg width="178" height="49" viewBox="0 0 178 49" fill="none" xmlns="http://www.w3.org/2000/svg">
<path d="M79.728 27V9.816H85.776C86.592 9.816 87.352 9.952 88.056 10.224C88.776 10.48 89.4 10.848 89.928 11.328C90.456 11.808 90.872 12.384 91.176 13.056C91.48 13.712 91.632 14.44 91.632 15.24C91.632 16.056 91.48 16.8 91.176 17.472C90.872 18.128 90.456 18.696 89.928 19.176C89.4 19.656 88.776 20.032 88.056 20.304C87.352 20.56 86.592 20.688 85.776 20.688H82.968V27H79.728ZM85.824 17.616C86.672 17.616 87.312 17.376 87.744 16.896C88.176 16.416 88.392 15.864 88.392 15.24C88.392 14.936 88.336 14.64 88.224 14.352C88.128 14.064 87.968 13.816 87.744 13.608C87.536 13.384 87.272 13.208 86.952 13.08C86.632 12.952 86.256 12.888 85.824 12.888H82.968V17.616H85.824Z" fill="url(#paint0_linear_94_120)"/>
<path d="M100.326 25.752H100.134C99.7664 26.2 99.3184 26.584 98.7904 26.904C98.2784 27.224 97.6144 27.384 96.7984 27.384C96.1904 27.384 95.6144 27.28 95.0704 27.072C94.5424 26.88 94.0784 26.608 93.6784 26.256C93.2784 25.904 92.9664 25.48 92.7424 24.984C92.5184 24.488 92.4064 23.944 92.4064 23.352C92.4064 22.744 92.5264 22.2 92.7664 21.72C93.0064 21.224 93.3424 20.8 93.7744 20.448C94.2064 20.096 94.7104 19.832 95.2864 19.656C95.8784 19.464 96.5184 19.368 97.2064 19.368C97.9744 19.368 98.6064 19.432 99.1024 19.56C99.5984 19.672 100.006 19.792 100.326 19.92V19.56C100.326 18.936 100.078 18.424 99.5824 18.024C99.0864 17.608 98.4704 17.4 97.7344 17.4C96.6464 17.4 95.7264 17.856 94.9744 18.768L92.6944 17.208C93.9424 15.64 95.6464 14.856 97.8064 14.856C99.6304 14.856 101.022 15.288 101.982 16.152C102.942 17 103.422 18.264 103.422 19.944V27H100.326V25.752ZM100.326 22.224C99.9584 22.048 99.5744 21.912 99.1744 21.816C98.7904 21.704 98.3664 21.648 97.9024 21.648C97.1504 21.648 96.5664 21.816 96.1504 22.152C95.7504 22.472 95.5504 22.872 95.5504 23.352C95.5504 23.832 95.7424 24.216 96.1264 24.504C96.5264 24.792 96.9824 24.936 97.4944 24.936C97.9104 24.936 98.2944 24.864 98.6464 24.72C98.9984 24.56 99.2944 24.36 99.5344 24.12C99.7904 23.864 99.9824 23.576 100.11 23.256C100.254 22.92 100.326 22.576 100.326 22.224Z" fill="url(#paint1_linear_94_120)"/>
<path d="M111.229 32.568C110.397 32.568 109.653 32.456 108.997 32.232C108.357 32.024 107.797 31.744 107.317 31.392C106.837 31.056 106.437 30.68 106.117 30.264C105.797 29.848 105.565 29.432 105.421 29.016L108.421 27.816C108.645 28.44 109.013 28.92 109.525 29.256C110.037 29.608 110.605 29.784 111.229 29.784C112.221 29.784 113.005 29.472 113.581 28.848C114.157 28.24 114.445 27.384 114.445 26.28V25.464H114.253C113.885 25.976 113.397 26.384 112.789 26.688C112.197 26.976 111.493 27.12 110.677 27.12C109.973 27.12 109.285 26.976 108.613 26.688C107.957 26.4 107.373 25.992 106.861 25.464C106.349 24.92 105.933 24.272 105.613 23.52C105.293 22.768 105.133 21.928 105.133 21C105.133 20.072 105.293 19.232 105.613 18.48C105.933 17.712 106.349 17.064 106.861 16.536C107.373 15.992 107.957 15.576 108.613 15.288C109.285 15 109.973 14.856 110.677 14.856C111.493 14.856 112.197 15.008 112.789 15.312C113.397 15.6 113.885 16 114.253 16.512H114.445V15.24H117.445V26.16C117.445 27.152 117.293 28.04 116.989 28.824C116.685 29.624 116.261 30.296 115.717 30.84C115.173 31.4 114.517 31.824 113.749 32.112C112.997 32.416 112.157 32.568 111.229 32.568ZM111.349 24.288C111.733 24.288 112.109 24.216 112.477 24.072C112.861 23.928 113.197 23.72 113.485 23.448C113.773 23.16 114.005 22.816 114.181 22.416C114.357 22 114.445 21.528 114.445 21C114.445 20.472 114.357 20 114.181 19.584C114.005 19.168 113.773 18.824 113.485 18.552C113.197 18.264 112.861 18.048 112.477 17.904C112.109 17.76 111.733 17.688 111.349 17.688C110.965 17.688 110.589 17.76 110.221 17.904C109.853 18.048 109.525 18.264 109.237 18.552C108.949 18.84 108.717 19.192 108.541 19.608C108.365 20.008 108.277 20.472 108.277 21C108.277 21.528 108.365 22 108.541 22.416C108.717 22.816 108.949 23.16 109.237 23.448C109.525 23.72 109.853 23.928 110.221 24.072C110.589 24.216 110.965 24.288 111.349 24.288Z" fill="url(#paint2_linear_94_120)"/>
<path d="M131.144 24.168C130.6 25.128 129.864 25.904 128.936 26.496C128.024 27.088 126.904 27.384 125.576 27.384C124.68 27.384 123.848 27.232 123.08 26.928C122.328 26.608 121.672 26.168 121.112 25.608C120.552 25.048 120.112 24.392 119.792 23.64C119.488 22.872 119.336 22.032 119.336 21.12C119.336 20.272 119.488 19.472 119.792 18.72C120.096 17.952 120.52 17.288 121.064 16.728C121.608 16.152 122.248 15.696 122.984 15.36C123.736 15.024 124.56 14.856 125.456 14.856C126.4 14.856 127.24 15.016 127.976 15.336C128.712 15.64 129.328 16.072 129.824 16.632C130.32 17.176 130.696 17.824 130.952 18.576C131.208 19.328 131.336 20.144 131.336 21.024C131.336 21.136 131.336 21.232 131.336 21.312C131.32 21.408 131.312 21.496 131.312 21.576C131.296 21.656 131.288 21.744 131.288 21.84H122.432C122.496 22.32 122.624 22.736 122.816 23.088C123.024 23.424 123.272 23.712 123.56 23.952C123.864 24.176 124.192 24.344 124.544 24.456C124.896 24.552 125.256 24.6 125.624 24.6C126.344 24.6 126.936 24.44 127.4 24.12C127.88 23.784 128.256 23.368 128.528 22.872L131.144 24.168ZM128.288 19.608C128.272 19.4 128.2 19.168 128.072 18.912C127.96 18.656 127.784 18.416 127.544 18.192C127.32 17.968 127.032 17.784 126.68 17.64C126.344 17.496 125.936 17.424 125.456 17.424C124.784 17.424 124.192 17.616 123.68 18C123.168 18.384 122.808 18.92 122.6 19.608H128.288Z" fill="url(#paint3_linear_94_120)"/>
<path d="M133.728 9.816H136.968V16.68H144.192V9.816H147.432V27H144.192V19.752H136.968V27H133.728V9.816ZM158.402 25.464H158.21C157.842 26.056 157.346 26.528 156.722 26.88C156.098 27.216 155.386 27.384 154.586 27.384C153.098 27.384 151.986 26.928 151.25 26.016C150.53 25.104 150.17 23.888 150.17 22.368V15.24H153.314V21.984C153.314 22.832 153.498 23.464 153.866 23.88C154.25 24.28 154.802 24.48 155.522 24.48C155.954 24.48 156.33 24.392 156.65 24.216C156.986 24.024 157.266 23.776 157.49 23.472C157.73 23.152 157.906 22.784 158.018 22.368C158.146 21.936 158.21 21.48 158.21 21V15.24H161.354V27H158.402V25.464ZM164.047 9.816H167.191V14.976L166.999 16.656H167.191C167.479 16.16 167.927 15.736 168.535 15.384C169.143 15.032 169.895 14.856 170.791 14.856C171.543 14.856 172.255 15.016 172.927 15.336C173.615 15.64 174.215 16.072 174.727 16.632C175.255 17.176 175.671 17.832 175.975 18.6C176.279 19.368 176.431 20.208 176.431 21.12C176.431 22.032 176.279 22.872 175.975 23.64C175.671 24.408 175.255 25.072 174.727 25.632C174.215 26.176 173.615 26.608 172.927 26.928C172.255 27.232 171.543 27.384 170.791 27.384C169.895 27.384 169.143 27.208 168.535 26.856C167.927 26.504 167.479 26.08 167.191 25.584H166.999V27H164.047V9.816ZM170.143 24.48C170.559 24.48 170.951 24.4 171.319 24.24C171.703 24.08 172.039 23.856 172.327 23.568C172.615 23.28 172.847 22.928 173.023 22.512C173.199 22.096 173.287 21.632 173.287 21.12C173.287 20.608 173.199 20.144 173.023 19.728C172.847 19.312 172.615 18.96 172.327 18.672C172.039 18.384 171.703 18.16 171.319 18C170.951 17.84 170.559 17.76 170.143 17.76C169.727 17.76 169.327 17.84 168.943 18C168.575 18.144 168.247 18.36 167.959 18.648C167.671 18.936 167.439 19.288 167.263 19.704C167.087 20.12 166.999 20.592 166.999 21.12C166.999 21.648 167.087 22.12 167.263 22.536C167.439 22.952 167.671 23.304 167.959 23.592C168.247 23.88 168.575 24.104 168.943 24.264C169.327 24.408 169.727 24.48 170.143 24.48Z" fill="#01102F"/>
<path d="M82.652 35.367L81.365 38.92H83.983L82.696 35.367H82.652ZM80.254 42H79.132L82.102 34.124H83.246L86.216 42H85.094L84.335 39.866H81.024L80.254 42ZM89.2225 41.252C89.7212 41.252 90.1282 41.0723 90.4435 40.713C90.7735 40.3537 90.9385 39.8843 90.9385 39.305C90.9385 38.7403 90.7735 38.2747 90.4435 37.908C90.1209 37.5413 89.7139 37.358 89.2225 37.358C88.7385 37.358 88.3315 37.5413 88.0015 37.908C87.6715 38.2747 87.5065 38.7403 87.5065 39.305C87.5065 39.877 87.6715 40.3427 88.0015 40.702C88.3315 41.0687 88.7385 41.252 89.2225 41.252ZM89.0575 42.176C88.3535 42.176 87.7485 41.8973 87.2425 41.34C86.7439 40.7753 86.4945 40.097 86.4945 39.305C86.4945 38.513 86.7439 37.8347 87.2425 37.27C87.7485 36.7127 88.3535 36.434 89.0575 36.434C89.4535 36.434 89.8129 36.5183 90.1355 36.687C90.4655 36.8557 90.7185 37.0793 90.8945 37.358H90.9385L90.8945 36.61V34.124H91.9065V42H90.9385V41.252H90.8945C90.7185 41.5307 90.4655 41.7543 90.1355 41.923C89.8129 42.0917 89.4535 42.176 89.0575 42.176ZM94.1524 42H93.1404V36.61H94.1084V37.358H94.1524C94.3064 37.094 94.5411 36.874 94.8564 36.698C95.1791 36.522 95.4981 36.434 95.8134 36.434C96.2094 36.434 96.5577 36.5257 96.8584 36.709C97.1591 36.8923 97.3791 37.1453 97.5184 37.468C97.9657 36.7787 98.5854 36.434 99.3774 36.434C100.001 36.434 100.481 36.6247 100.818 37.006C101.156 37.3873 101.324 37.93 101.324 38.634V42H100.312V38.788C100.312 38.282 100.221 37.919 100.037 37.699C99.8541 37.4717 99.5461 37.358 99.1134 37.358C98.7247 37.358 98.3984 37.523 98.1344 37.853C97.8704 38.183 97.7384 38.5717 97.7384 39.019V42H96.7264V38.788C96.7264 38.282 96.6347 37.919 96.4514 37.699C96.2681 37.4717 95.9601 37.358 95.5274 37.358C95.1387 37.358 94.8124 37.523 94.5484 37.853C94.2844 38.183 94.1524 38.5717 94.1524 39.019V42ZM103.817 34.751C103.817 34.949 103.747 35.1177 103.608 35.257C103.468 35.3963 103.3 35.466 103.102 35.466C102.904 35.466 102.735 35.3963 102.596 35.257C102.456 35.1177 102.387 34.949 102.387 34.751C102.387 34.553 102.456 34.3843 102.596 34.245C102.735 34.1057 102.904 34.036 103.102 34.036C103.3 34.036 103.468 34.1057 103.608 34.245C103.747 34.3843 103.817 34.553 103.817 34.751ZM103.608 36.61V42H102.596V36.61H103.608ZM104.925 36.61H105.893V37.358H105.937C106.091 37.094 106.325 36.874 106.641 36.698C106.963 36.522 107.297 36.434 107.642 36.434C108.302 36.434 108.808 36.6247 109.16 37.006C109.519 37.38 109.699 37.9153 109.699 38.612V42H108.687V38.678C108.665 37.798 108.221 37.358 107.356 37.358C106.952 37.358 106.615 37.523 106.344 37.853C106.072 38.1757 105.937 38.5643 105.937 39.019V42H104.925V36.61ZM114.492 38.81V42H113.48V34.124H116.164C116.846 34.124 117.425 34.3513 117.902 34.806C118.386 35.2607 118.628 35.8143 118.628 36.467C118.628 37.1343 118.386 37.6917 117.902 38.139C117.432 38.5863 116.853 38.81 116.164 38.81H114.492ZM114.492 35.092V37.842H116.186C116.589 37.842 116.923 37.7063 117.187 37.435C117.458 37.1637 117.594 36.841 117.594 36.467C117.594 36.1003 117.458 35.7813 117.187 35.51C116.923 35.2313 116.589 35.092 116.186 35.092H114.492ZM120.035 40.35C120.035 40.614 120.145 40.834 120.365 41.01C120.592 41.186 120.856 41.274 121.157 41.274C121.582 41.274 121.96 41.1163 122.29 40.801C122.627 40.4857 122.796 40.1153 122.796 39.69C122.48 39.4407 122.04 39.316 121.476 39.316C121.065 39.316 120.72 39.415 120.442 39.613C120.17 39.811 120.035 40.0567 120.035 40.35ZM121.344 36.434C122.092 36.434 122.682 36.6357 123.115 37.039C123.547 37.435 123.764 37.9813 123.764 38.678V42H122.796V41.252H122.752C122.334 41.868 121.776 42.176 121.08 42.176C120.486 42.176 119.987 42 119.584 41.648C119.188 41.296 118.99 40.856 118.99 40.328C118.99 39.7707 119.199 39.327 119.617 38.997C120.042 38.667 120.607 38.502 121.311 38.502C121.912 38.502 122.407 38.612 122.796 38.832V38.601C122.796 38.249 122.656 37.952 122.378 37.71C122.099 37.4607 121.773 37.336 121.399 37.336C120.834 37.336 120.387 37.5743 120.057 38.051L119.166 37.49C119.657 36.786 120.383 36.434 121.344 36.434ZM124.905 36.61H125.873V37.358H125.917C126.071 37.094 126.306 36.874 126.621 36.698C126.944 36.522 127.277 36.434 127.622 36.434C128.282 36.434 128.788 36.6247 129.14 37.006C129.499 37.38 129.679 37.9153 129.679 38.612V42H128.667V38.678C128.645 37.798 128.201 37.358 127.336 37.358C126.933 37.358 126.595 37.523 126.324 37.853C126.053 38.1757 125.917 38.5643 125.917 39.019V42H124.905V36.61ZM133.287 42.176C132.495 42.176 131.842 41.9047 131.329 41.362C130.816 40.8193 130.559 40.1337 130.559 39.305C130.559 38.4837 130.808 37.8017 131.307 37.259C131.806 36.709 132.444 36.434 133.221 36.434C134.02 36.434 134.655 36.6943 135.124 37.215C135.601 37.7283 135.839 38.4507 135.839 39.382L135.828 39.492H131.593C131.608 40.02 131.784 40.4453 132.121 40.768C132.458 41.0907 132.862 41.252 133.331 41.252C133.976 41.252 134.482 40.9293 134.849 40.284L135.751 40.724C135.509 41.1787 135.172 41.5343 134.739 41.791C134.314 42.0477 133.83 42.176 133.287 42.176ZM131.67 38.656H134.761C134.732 38.282 134.578 37.974 134.299 37.732C134.028 37.4827 133.661 37.358 133.199 37.358C132.818 37.358 132.488 37.4753 132.209 37.71C131.938 37.9447 131.758 38.26 131.67 38.656ZM137.776 34.124V42H136.764V34.124H137.776Z" fill="#01102F"/>
<path d="M3.34821 39.1487V39.1487C3.34821 42.8053 6.31243 45.7695 9.96899 45.7695H51.0961C54.8788 45.7695 57.9452 42.7031 57.9452 38.9204V38.9204" stroke="url(#paint4_linear_94_120)" stroke-width="2"/>
<path d="M6.57711 7.61032H3.15257C1.96374 7.61032 1 8.57406 1 9.76289V36.8679C1 38.0559 1.96427 39.0161 3.15204 39.0387C11.9568 39.2061 18.4971 40.4783 30.5489 45.6717C42.6007 40.4783 49.0432 39.304 57.848 39.1365C59.0357 39.1139 60 38.1537 60 36.9657V9.86074C60 8.6719 59.0363 7.70817 57.8474 7.70817H54.4229" stroke="url(#paint5_linear_94_120)" stroke-width="2"/>
<path d="M25.4611 43.8126H35.6368C35.6368 46.6226 33.3589 48.9005 30.549 48.9005C27.739 48.9005 25.4611 46.6226 25.4611 43.8126Z" fill="#00BC8B"/>
<mask id="path-6-inside-1_94_120" fill="white">
<path fill-rule="evenodd" clip-rule="evenodd" d="M13.5478 22.7943C12.3811 22.4988 11.3195 22.3121 10.4468 22.2665C9.89526 22.2377 9.42479 22.6614 9.39597 23.2129C9.36714 23.7645 9.79088 24.2349 10.3424 24.2638C12.1584 24.3587 15.2341 25.2336 18.3854 26.5638C21.5286 27.8906 24.5671 29.5948 26.3498 31.2404C26.7556 31.615 27.3883 31.5897 27.7629 31.1838C28.1375 30.778 28.1122 30.1454 27.7064 29.7708C25.6731 27.8939 22.3869 26.082 19.1632 24.7212C17.8456 24.165 16.5082 23.6715 15.2393 23.2749C13.8715 24.1673 13.6102 23.7418 13.5478 22.7943Z"/>
</mask>
<path fill-rule="evenodd" clip-rule="evenodd" d="M13.5478 22.7943C12.3811 22.4988 11.3195 22.3121 10.4468 22.2665C9.89526 22.2377 9.42479 22.6614 9.39597 23.2129C9.36714 23.7645 9.79088 24.2349 10.3424 24.2638C12.1584 24.3587 15.2341 25.2336 18.3854 26.5638C21.5286 27.8906 24.5671 29.5948 26.3498 31.2404C26.7556 31.615 27.3883 31.5897 27.7629 31.1838C28.1375 30.778 28.1122 30.1454 27.7064 29.7708C25.6731 27.8939 22.3869 26.082 19.1632 24.7212C17.8456 24.165 16.5082 23.6715 15.2393 23.2749C13.8715 24.1673 13.6102 23.7418 13.5478 22.7943Z" fill="url(#paint6_linear_94_120)"/>
<path d="M10.4468 22.2665L10.3424 24.2638H10.3424L10.4468 22.2665ZM13.5478 22.7943L15.5435 22.663L15.4481 21.2123L14.0388 20.8554L13.5478 22.7943ZM9.39597 23.2129L11.3932 23.3173V23.3173L9.39597 23.2129ZM10.3424 24.2638L10.4468 22.2665H10.4468L10.3424 24.2638ZM18.3854 26.5638L19.1632 24.7212L18.3854 26.5638ZM26.3498 31.2404L27.7064 29.7708H27.7064L26.3498 31.2404ZM27.7629 31.1838L29.2325 32.5404L29.2325 32.5404L27.7629 31.1838ZM27.7064 29.7708L29.0629 28.3012L29.0629 28.3012L27.7064 29.7708ZM19.1632 24.7212L18.3854 26.5638L19.1632 24.7212ZM15.2393 23.2749L15.836 21.366L14.9362 21.0847L14.1465 21.5998L15.2393 23.2749ZM10.3424 24.2638C11.0369 24.3001 11.9599 24.4553 13.0569 24.7331L14.0388 20.8554C12.8023 20.5424 11.6022 20.3241 10.5512 20.2692L10.3424 24.2638ZM11.3932 23.3173C11.3644 23.8688 10.8939 24.2926 10.3424 24.2638L10.5512 20.2692C8.89658 20.1827 7.48517 21.4539 7.39869 23.1085L11.3932 23.3173ZM10.4468 22.2665C10.9983 22.2953 11.4221 22.7658 11.3932 23.3173L7.39869 23.1085C7.31222 24.7631 8.58344 26.1746 10.238 26.261L10.4468 22.2665ZM19.1632 24.7212C15.948 23.364 12.6148 22.3798 10.4468 22.2665L10.238 26.261C11.702 26.3375 14.5202 27.1031 17.6076 28.4064L19.1632 24.7212ZM27.7064 29.7708C25.673 27.8939 22.3868 26.082 19.1632 24.7212L17.6076 28.4064C20.6704 29.6992 23.4612 31.2958 24.9932 32.71L27.7064 29.7708ZM26.2933 29.8273C26.6679 29.4215 27.3005 29.3962 27.7064 29.7708L24.9932 32.71C26.2107 33.8338 28.1087 33.7579 29.2325 32.5404L26.2933 29.8273ZM26.3498 31.2404C25.944 30.8658 25.9187 30.2331 26.2933 29.8273L29.2325 32.5404C30.3563 31.3229 30.2804 29.425 29.0629 28.3012L26.3498 31.2404ZM18.3854 26.5638C21.5284 27.8905 24.5671 29.5948 26.3498 31.2404L29.0629 28.3012C26.7791 26.193 23.2454 24.2735 19.941 22.8787L18.3854 26.5638ZM14.6426 25.1838C15.845 25.5596 17.1219 26.0304 18.3854 26.5638L19.941 22.8787C18.5693 22.2996 17.1714 21.7834 15.836 21.366L14.6426 25.1838ZM14.1465 21.5998C13.8664 21.7826 13.7635 21.8156 13.7885 21.8075C13.798 21.8044 14.215 21.6641 14.7458 21.9103C15.3107 22.1724 15.4993 22.6331 15.5378 22.7454C15.5717 22.8443 15.5562 22.8556 15.5435 22.663L11.5522 22.9255C11.5707 23.2067 11.6112 23.6265 11.7544 24.0438C11.9022 24.4745 12.2533 25.1634 13.0623 25.5388C13.8371 25.8983 14.5799 25.7562 15.025 25.6115C15.4857 25.4618 15.9284 25.2133 16.3321 24.9499L14.1465 21.5998Z" fill="url(#paint7_linear_94_120)" mask="url(#path-6-inside-1_94_120)"/>
<mask id="path-8-inside-2_94_120" fill="white">
<path fill-rule="evenodd" clip-rule="evenodd" d="M13.3473 16.4824C12.2593 16.2158 11.269 16.0474 10.4464 16.0045C9.89484 15.9756 9.42437 16.3994 9.39554 16.9509C9.36672 17.5024 9.79045 17.9729 10.342 18.0017C11.1343 18.0431 12.1664 18.233 13.34 18.5444C13.3396 17.8262 13.3418 17.1316 13.3473 16.4824ZM24.0914 23.2645C24.9629 23.8307 25.7316 24.4081 26.3494 24.9783C26.7552 25.353 27.3879 25.3276 27.7625 24.9218C28.1371 24.516 28.1118 23.8833 27.7059 23.5087C26.7378 22.6151 25.4856 21.7362 24.0914 20.9136V23.2645Z"/>
</mask>
<path fill-rule="evenodd" clip-rule="evenodd" d="M13.3473 16.4824C12.2593 16.2158 11.269 16.0474 10.4464 16.0045C9.89484 15.9756 9.42437 16.3994 9.39554 16.9509C9.36672 17.5024 9.79045 17.9729 10.342 18.0017C11.1343 18.0431 12.1664 18.233 13.34 18.5444C13.3396 17.8262 13.3418 17.1316 13.3473 16.4824ZM24.0914 23.2645C24.9629 23.8307 25.7316 24.4081 26.3494 24.9783C26.7552 25.353 27.3879 25.3276 27.7625 24.9218C28.1371 24.516 28.1118 23.8833 27.7059 23.5087C26.7378 22.6151 25.4856 21.7362 24.0914 20.9136V23.2645Z" fill="url(#paint8_linear_94_120)"/>
<path d="M10.4464 16.0045L10.342 18.0017H10.342L10.4464 16.0045ZM13.3473 16.4824L15.3473 16.4993L15.3606 14.9165L13.8232 14.5398L13.3473 16.4824ZM9.39554 16.9509L11.3928 17.0553V17.0553L9.39554 16.9509ZM10.342 18.0017L10.4464 16.0045H10.4464L10.342 18.0017ZM13.34 18.5444L12.827 20.4775L15.3412 21.1446L15.34 18.5435L13.34 18.5444ZM26.3494 24.9783L27.7059 23.5087L26.3494 24.9783ZM24.0914 23.2645H22.0914V24.3502L23.0018 24.9417L24.0914 23.2645ZM27.7625 24.9218L29.2321 26.2784L29.2321 26.2784L27.7625 24.9218ZM27.7059 23.5087L29.0625 22.0391L29.0625 22.0391L27.7059 23.5087ZM24.0914 20.9136L25.1076 19.1911L22.0914 17.4117V20.9136H24.0914ZM10.342 18.0017C10.995 18.0359 11.8529 18.1754 12.8714 18.4249L13.8232 14.5398C12.6657 14.2562 11.5429 14.059 10.5508 14.0072L10.342 18.0017ZM11.3928 17.0553C11.364 17.6068 10.8935 18.0306 10.342 18.0017L10.5508 14.0072C8.89616 13.9207 7.48474 15.1919 7.39827 16.8465L11.3928 17.0553ZM10.4464 16.0045C10.9979 16.0333 11.4216 16.5038 11.3928 17.0553L7.39827 16.8465C7.31179 18.5011 8.58301 19.9125 10.2376 19.999L10.4464 16.0045ZM13.8529 16.6113C12.6152 16.2829 11.4336 16.0561 10.4464 16.0045L10.2376 19.999C10.835 20.0302 11.7176 20.1832 12.827 20.4775L13.8529 16.6113ZM15.34 18.5435C15.3396 17.8298 15.3418 17.1413 15.3473 16.4993L11.3474 16.4655C11.3418 17.122 11.3396 17.8227 11.34 18.5454L15.34 18.5435ZM27.7059 23.5087C26.9819 22.8404 26.1163 22.195 25.181 21.5874L23.0018 24.9417C23.8096 25.4665 24.4813 25.9758 24.9928 26.448L27.7059 23.5087ZM26.2929 23.5653C26.6675 23.1594 27.3001 23.1341 27.7059 23.5087L24.9928 26.448C26.2103 27.5718 28.1083 27.4958 29.2321 26.2784L26.2929 23.5653ZM26.3494 24.9783C25.9436 24.6037 25.9182 23.9711 26.2928 23.5653L29.2321 26.2784C30.3559 25.0609 30.28 23.1629 29.0625 22.0391L26.3494 24.9783ZM23.0752 22.6362C24.3958 23.4153 25.5199 24.2127 26.3494 24.9783L29.0625 22.0391C27.9557 21.0175 26.5754 20.057 25.1076 19.1911L23.0752 22.6362ZM22.0914 20.9136V23.2645H26.0914V20.9136H22.0914Z" fill="url(#paint9_linear_94_120)" mask="url(#path-8-inside-2_94_120)"/>
<mask id="path-10-inside-3_94_120" fill="white">
<path fill-rule="evenodd" clip-rule="evenodd" d="M14.1414 10.8187C12.7413 10.4325 11.4653 10.187 10.4467 10.1338C9.89514 10.1049 9.42467 10.5287 9.39585 11.0802C9.36702 11.6317 9.79076 12.1022 10.3423 12.131C11.3067 12.1814 12.6263 12.4518 14.1239 12.8935C14.1262 12.1552 14.1317 11.4548 14.1414 10.8187ZM24.8742 17.9252C25.4271 18.3188 25.9242 18.7149 26.3497 19.1077C26.7555 19.4823 27.3882 19.4569 27.7628 19.0511C28.1374 18.6453 28.1121 18.0126 27.7062 17.638C26.9231 16.9151 25.954 16.2018 24.8742 15.5202V17.9252Z"/>
</mask>
<path fill-rule="evenodd" clip-rule="evenodd" d="M14.1414 10.8187C12.7413 10.4325 11.4653 10.187 10.4467 10.1338C9.89514 10.1049 9.42467 10.5287 9.39585 11.0802C9.36702 11.6317 9.79076 12.1022 10.3423 12.131C11.3067 12.1814 12.6263 12.4518 14.1239 12.8935C14.1262 12.1552 14.1317 11.4548 14.1414 10.8187ZM24.8742 17.9252C25.4271 18.3188 25.9242 18.7149 26.3497 19.1077C26.7555 19.4823 27.3882 19.4569 27.7628 19.0511C28.1374 18.6453 28.1121 18.0126 27.7062 17.638C26.9231 16.9151 25.954 16.2018 24.8742 15.5202V17.9252Z" fill="url(#paint10_linear_94_120)"/>
<path d="M10.4467 10.1338L10.3423 12.131H10.3423L10.4467 10.1338ZM14.1414 10.8187L16.1411 10.849L16.1646 9.30202L14.6731 8.89065L14.1414 10.8187ZM9.39585 11.0802L11.3931 11.1846V11.1846L9.39585 11.0802ZM10.3423 12.131L10.4467 10.1338L10.3423 12.131ZM14.1239 12.8935L13.5581 14.8118L16.1158 15.5662L16.1239 12.8996L14.1239 12.8935ZM26.3497 19.1077L27.7062 17.638L27.7062 17.638L26.3497 19.1077ZM24.8742 17.9252H22.8742V18.9567L23.7145 19.5547L24.8742 17.9252ZM27.7628 19.0511L29.2324 20.4077L29.2324 20.4077L27.7628 19.0511ZM27.7062 17.638L29.0628 16.1684L29.0628 16.1684L27.7062 17.638ZM24.8742 15.5202L25.9417 13.829L22.8742 11.8927V15.5202H24.8742ZM10.3423 12.131C11.1584 12.1737 12.2789 12.3797 13.6096 12.7467L14.6731 8.89065C13.2036 8.48535 11.7723 8.20031 10.5511 8.13649L10.3423 12.131ZM11.3931 11.1846C11.3643 11.7361 10.8938 12.1599 10.3423 12.131L10.5511 8.13649C8.89646 8.05001 7.48505 9.32123 7.39857 10.9758L11.3931 11.1846ZM10.4467 10.1338C10.9982 10.1626 11.4219 10.6331 11.3931 11.1846L7.39857 10.9758C7.3121 12.6304 8.58331 14.0418 10.2379 14.1283L10.4467 10.1338ZM14.6897 10.9752C13.1299 10.5151 11.6381 10.196 10.4467 10.1338L10.2379 14.1283C10.9752 14.1668 12.1228 14.3885 13.5581 14.8118L14.6897 10.9752ZM16.1239 12.8996C16.1262 12.1669 16.1316 11.475 16.1411 10.849L12.1416 10.7883C12.1318 11.4346 12.1262 12.1434 12.1239 12.8874L16.1239 12.8996ZM27.7062 17.638C27.2054 17.1758 26.6395 16.7268 26.0339 16.2958L23.7145 19.5547C24.2148 19.9108 24.6429 20.254 24.9931 20.5773L27.7062 17.638ZM26.2932 17.6946C26.6678 17.2888 27.3004 17.2634 27.7062 17.638L24.9931 20.5773C26.2106 21.7011 28.1086 21.6251 29.2324 20.4077L26.2932 17.6946ZM26.3497 19.1077C25.9439 18.733 25.9186 18.1004 26.2932 17.6946L29.2324 20.4077C30.3562 19.1902 30.2803 17.2922 29.0628 16.1684L26.3497 19.1077ZM23.8066 17.2115C24.8179 17.8498 25.6814 18.4908 26.3497 19.1077L29.0628 16.1684C28.1647 15.3394 27.0901 14.5538 25.9417 13.829L23.8066 17.2115ZM22.8742 15.5202V17.9252H26.8742V15.5202H22.8742Z" fill="url(#paint11_linear_94_120)" mask="url(#path-10-inside-3_94_120)"/>
<path d="M27.0267 35.9851C23.2107 32.4627 14.3771 28.9529 10.3932 28.7447" stroke="url(#paint12_linear_94_120)" stroke-width="2" stroke-linecap="round"/>
<path d="M34.2667 30.5055C38.0826 26.9831 46.9162 23.4733 50.9001 23.2651" stroke="url(#paint13_linear_94_120)" stroke-width="2" stroke-linecap="round"/>
<path d="M34.267 24.2436C38.083 20.7212 46.9166 17.2113 50.9005 17.0031" stroke="url(#paint14_linear_94_120)" stroke-width="2" stroke-linecap="round"/>
<path d="M34.266 18.3729C38.0819 14.8505 46.9156 11.3407 50.8995 11.1324" stroke="url(#paint15_linear_94_120)" stroke-width="2" stroke-linecap="round"/>
<path d="M34.2671 35.9851C38.083 32.4627 46.9167 28.9528 50.9006 28.7446" stroke="url(#paint16_linear_94_120)" stroke-width="2" stroke-linecap="round"/>
<path fill-rule="evenodd" clip-rule="evenodd" d="M24.1891 11.4856C24.5077 11.6747 24.8177 11.8653 25.1176 12.057C26.9706 13.2406 28.3122 14.3803 29.0433 15.3611L29.684 16.2205H29.6468V42.0385C29.1704 41.6832 28.6664 41.3371 28.1536 41.0033C26.3098 39.8031 24.0208 38.5573 21.5969 37.395C16.9655 35.1741 11.6235 33.1542 7.69659 32.3488V5.39341C9.28232 5.58997 11.3128 6.07478 13.52 6.7803C13.3428 4.6133 12.1615 4.75573 10.9801 5.26202L11.0844 4.01007C9.44374 3.60766 7.96199 3.35947 6.76726 3.30641C6.15987 3.27943 5.69659 3.67686 5.69659 4.28485V33.051C5.69659 33.6431 6.28852 34.1171 6.87072 34.2251C13.3424 35.4262 24.9395 40.6329 29.2519 44.2756C29.8895 44.8142 30.3678 45.3185 30.6468 45.7707C30.9258 45.3185 31.4042 44.8142 32.0417 44.2756C36.3542 40.6329 47.9513 35.4262 54.423 34.2251C55.0051 34.1171 55.5971 33.6431 55.5971 33.051V4.28485C55.5971 3.67686 55.1282 3.27943 54.5208 3.30641C48.9302 3.55472 37.0592 8.07568 32.023 12.6772C31.479 13.1742 31.0148 13.6722 30.6468 14.1658C30.2789 13.6722 29.8146 13.1743 29.2706 12.6773C27.9617 11.4816 26.1911 10.2913 24.1891 9.18007V11.4856ZM30.6468 42.8367C30.4934 42.7045 30.3346 42.5731 30.1713 42.4427H31.1224C30.9591 42.5731 30.8003 42.7045 30.6468 42.8367ZM33.14 41.0033C32.6273 41.3371 32.1233 41.6832 31.6468 42.0385V16.2205H31.6097L32.2503 15.3611C32.9816 14.3801 34.323 13.2404 36.1754 12.0568C37.9963 10.8933 40.1831 9.76778 42.472 8.77536C46.5835 6.99272 50.7888 5.73991 53.5971 5.39272V32.3488C49.6702 33.1542 44.3282 35.1741 39.6968 37.395C37.2729 38.5573 34.9839 39.8031 33.14 41.0033Z" fill="url(#paint17_linear_94_120)"/>
<path d="M13.524 7.61028C13.7197 4.18574 12.3499 4.28358 10.98 4.87065L10.7458 4.73288C10.1088 4.35812 9.98646 3.48791 10.4955 2.95205C11.6261 1.76192 13.3452 1.33726 14.8999 1.86405L21.4162 4.07207C23.0737 4.6337 24.189 6.18918 24.189 7.93926V24.15C24.189 25.4663 22.5021 26.0104 21.733 24.9422C20.257 22.8921 17.2655 22.6932 15.5 24.5C14 26 13 24.5 13.524 21.9934C14.3116 18.2257 13.3674 10.3499 13.524 7.61028Z" stroke="url(#paint18_linear_94_120)" stroke-width="2"/>
<defs>
<linearGradient id="paint0_linear_94_120" x1="136.636" y1="21.0045" x2="127.539" y2="-10.3663" gradientUnits="userSpaceOnUse">
<stop stop-color="#00BC8B"/>
<stop offset="1" stop-color="#7AE9CC"/>
</linearGradient>
<linearGradient id="paint1_linear_94_120" x1="99.818" y1="11.084" x2="108.378" y2="41.0926" gradientUnits="userSpaceOnUse">
<stop offset="0.139546" stop-color="#8AB0FB"/>
<stop offset="1" stop-color="#4582F9"/>
</linearGradient>
<linearGradient id="paint2_linear_94_120" x1="178" y1="33" x2="162.485" y2="-20.5006" gradientUnits="userSpaceOnUse">
<stop stop-color="#FFB800"/>
<stop offset="1" stop-color="#FFECBC"/>
</linearGradient>
<linearGradient id="paint3_linear_94_120" x1="89.8541" y1="7.96657" x2="96.1371" y2="31.6016" gradientUnits="userSpaceOnUse">
<stop stop-color="#B7ADFE"/>
<stop offset="1" stop-color="#8D7DFD"/>
</linearGradient>
<linearGradient id="paint4_linear_94_120" x1="57.9452" y1="45.7695" x2="56.2534" y2="32.2836" gradientUnits="userSpaceOnUse">
<stop stop-color="#FFB800"/>
<stop offset="1" stop-color="#FFECBC"/>
</linearGradient>
<linearGradient id="paint5_linear_94_120" x1="35.5955" y1="29.9281" x2="15.2625" y2="-1.59054" gradientUnits="userSpaceOnUse">
<stop stop-color="#00BC8B"/>
<stop offset="1" stop-color="#7AE9CC"/>
</linearGradient>
<linearGradient id="paint6_linear_94_120" x1="12.3327" y1="23.4994" x2="18.7374" y2="34.6299" gradientUnits="userSpaceOnUse">
<stop offset="0.139546" stop-color="#8AB0FB"/>
<stop offset="1" stop-color="#4582F9"/>
</linearGradient>
<linearGradient id="paint7_linear_94_120" x1="12.3327" y1="23.4994" x2="18.7374" y2="34.6299" gradientUnits="userSpaceOnUse">
<stop offset="0.139546" stop-color="#8AB0FB"/>
<stop offset="1" stop-color="#4582F9"/>
</linearGradient>
<linearGradient id="paint8_linear_94_120" x1="12.3323" y1="17.2374" x2="18.737" y2="28.3679" gradientUnits="userSpaceOnUse">
<stop offset="0.139546" stop-color="#8AB0FB"/>
<stop offset="1" stop-color="#4582F9"/>
</linearGradient>
<linearGradient id="paint9_linear_94_120" x1="12.3323" y1="17.2374" x2="18.737" y2="28.3679" gradientUnits="userSpaceOnUse">
<stop offset="0.139546" stop-color="#8AB0FB"/>
<stop offset="1" stop-color="#4582F9"/>
</linearGradient>
<linearGradient id="paint10_linear_94_120" x1="12.3326" y1="11.3667" x2="18.7373" y2="22.4972" gradientUnits="userSpaceOnUse">
<stop offset="0.139546" stop-color="#8AB0FB"/>
<stop offset="1" stop-color="#4582F9"/>
</linearGradient>
<linearGradient id="paint11_linear_94_120" x1="12.3326" y1="11.3667" x2="18.7373" y2="22.4972" gradientUnits="userSpaceOnUse">
<stop offset="0.139546" stop-color="#8AB0FB"/>
<stop offset="1" stop-color="#4582F9"/>
</linearGradient>
<linearGradient id="paint12_linear_94_120" x1="14.0223" y1="30.5133" x2="16.9538" y2="37.36" gradientUnits="userSpaceOnUse">
<stop offset="0.139546" stop-color="#8AB0FB"/>
<stop offset="1" stop-color="#4582F9"/>
</linearGradient>
<linearGradient id="paint13_linear_94_120" x1="47.2711" y1="25.0337" x2="44.3395" y2="31.8805" gradientUnits="userSpaceOnUse">
<stop offset="0.139546" stop-color="#8AB0FB"/>
<stop offset="1" stop-color="#4582F9"/>
</linearGradient>
<linearGradient id="paint14_linear_94_120" x1="47.2714" y1="18.7718" x2="44.3399" y2="25.6185" gradientUnits="userSpaceOnUse">
<stop offset="0.139546" stop-color="#8AB0FB"/>
<stop offset="1" stop-color="#4582F9"/>
</linearGradient>
<linearGradient id="paint15_linear_94_120" x1="47.2704" y1="12.9011" x2="44.3388" y2="19.7478" gradientUnits="userSpaceOnUse">
<stop offset="0.139546" stop-color="#8AB0FB"/>
<stop offset="1" stop-color="#4582F9"/>
</linearGradient>
<linearGradient id="paint16_linear_94_120" x1="47.2715" y1="30.5133" x2="44.3399" y2="37.36" gradientUnits="userSpaceOnUse">
<stop offset="0.139546" stop-color="#8AB0FB"/>
<stop offset="1" stop-color="#4582F9"/>
</linearGradient>
<linearGradient id="paint17_linear_94_120" x1="11.6118" y1="9.11348" x2="29.5824" y2="32.1501" gradientUnits="userSpaceOnUse">
<stop stop-color="#B7ADFE"/>
<stop offset="1" stop-color="#8D7DFD"/>
</linearGradient>
<linearGradient id="paint18_linear_94_120" x1="11.2412" y1="4.74132" x2="21.6513" y2="10.8398" gradientUnits="userSpaceOnUse">
<stop stop-color="#B7ADFE"/>
<stop offset="1" stop-color="#8D7DFD"/>
</linearGradient>
</defs>
</svg>
