<svg width="89" height="72" viewBox="0 0 89 72" fill="none" xmlns="http://www.w3.org/2000/svg">
<path d="M4.46271 57.2532V57.2532C4.46271 62.645 8.83369 67.016 14.2256 67.016H74.8707C80.4485 67.016 84.9702 62.4943 84.9702 56.9165V56.9165" stroke="white" stroke-width="2"/>
<path d="M9.22388 10.7474H4.17413C2.42111 10.7474 1 12.1685 1 13.9215V53.8899C1 55.6417 2.42189 57.0576 4.17335 57.0909C17.1567 57.3378 26.8008 59.2137 44.5721 66.8718C62.3435 59.2137 71.8433 57.4821 84.8266 57.2352C86.5781 57.2019 88 55.7859 88 54.0342V14.0658C88 12.3128 86.5789 10.8917 84.8259 10.8917H79.7761" stroke="#D9D9D9" stroke-width="2"/>
<path d="M37.0697 64.1305H52.0746V64.1305C52.0746 68.274 48.7157 71.6329 44.5722 71.6329V71.6329C40.4287 71.6329 37.0697 68.274 37.0697 64.1305V64.1305Z" fill="#D9D9D9"/>
<mask id="path-4-inside-1_240_44" fill="white">
<path fill-rule="evenodd" clip-rule="evenodd" d="M19.5569 33.6412C17.7949 33.1868 16.1995 32.9009 14.905 32.8332C14.3535 32.8044 13.883 33.2281 13.8542 33.7797C13.8253 34.3312 14.2491 34.8017 14.8006 34.8305C17.5619 34.9748 22.1584 36.2908 26.8205 38.2588C31.4743 40.2233 36.0137 42.7619 38.7019 45.2432C39.1077 45.6178 39.7403 45.5925 40.1149 45.1867C40.4895 44.7809 40.4642 44.1482 40.0584 43.7736C37.1197 41.061 32.3327 38.4147 27.5983 36.4162C25.5221 35.5398 23.4214 34.7734 21.4544 34.1756C20.1312 34.9091 19.7044 34.5506 19.5569 33.6412Z"/>
</mask>
<path fill-rule="evenodd" clip-rule="evenodd" d="M19.5569 33.6412C17.7949 33.1868 16.1995 32.9009 14.905 32.8332C14.3535 32.8044 13.883 33.2281 13.8542 33.7797C13.8253 34.3312 14.2491 34.8017 14.8006 34.8305C17.5619 34.9748 22.1584 36.2908 26.8205 38.2588C31.4743 40.2233 36.0137 42.7619 38.7019 45.2432C39.1077 45.6178 39.7403 45.5925 40.1149 45.1867C40.4895 44.7809 40.4642 44.1482 40.0584 43.7736C37.1197 41.061 32.3327 38.4147 27.5983 36.4162C25.5221 35.5398 23.4214 34.7734 21.4544 34.1756C20.1312 34.9091 19.7044 34.5506 19.5569 33.6412Z" fill="#D9D9D9"/>
<path d="M14.905 32.8332L14.8006 34.8305L14.8006 34.8305L14.905 32.8332ZM19.5569 33.6412L21.5311 33.3209L21.3218 32.0309L20.0563 31.7046L19.5569 33.6412ZM13.8542 33.7797L15.8514 33.884L15.8514 33.884L13.8542 33.7797ZM14.8006 34.8305L14.6962 36.8278L14.6962 36.8278L14.8006 34.8305ZM26.8205 38.2588L27.5983 36.4162L27.5983 36.4162L26.8205 38.2588ZM38.7019 45.2432L40.0584 43.7736L40.0584 43.7736L38.7019 45.2432ZM40.0584 43.7736L38.7019 45.2432L38.7019 45.2432L40.0584 43.7736ZM27.5983 36.4162L28.376 34.5737L27.5983 36.4162ZM21.4544 34.1756L22.0359 32.2621L21.2255 32.0158L20.4847 32.4264L21.4544 34.1756ZM14.8006 34.8305C15.9113 34.8885 17.3644 35.1412 19.0574 35.5778L20.0563 31.7046C18.2253 31.2324 16.4877 30.9132 15.0094 30.8359L14.8006 34.8305ZM15.8514 33.884C15.8226 34.4356 15.3521 34.8593 14.8006 34.8305L15.0094 30.8359C13.3548 30.7495 11.9434 32.0207 11.8569 33.6753L15.8514 33.884ZM14.905 32.8332C15.4565 32.862 15.8803 33.3325 15.8514 33.884L11.8569 33.6753C11.7704 35.3299 13.0416 36.7413 14.6962 36.8278L14.905 32.8332ZM27.5983 36.4162C22.8722 34.4212 18.0183 32.9959 14.905 32.8332L14.6962 36.8278C17.1056 36.9537 21.4445 38.1604 26.0427 40.1014L27.5983 36.4162ZM40.0584 43.7736C37.1196 41.0609 32.3326 38.4147 27.5983 36.4162L26.0427 40.1014C30.6161 42.0319 34.9078 44.4629 37.3453 46.7128L40.0584 43.7736ZM38.6453 43.8302C39.0199 43.4243 39.6526 43.399 40.0584 43.7736L37.3453 46.7128C38.5628 47.8367 40.4607 47.7607 41.5846 46.5433L38.6453 43.8302ZM38.7019 45.2432C38.296 44.8686 38.2707 44.236 38.6453 43.8302L41.5846 46.5433C42.7084 45.3258 42.6324 43.4278 41.415 42.304L38.7019 45.2432ZM26.8205 38.2588C31.4743 40.2233 36.0137 42.7618 38.7019 45.2432L41.415 42.304C38.2257 39.3601 33.1911 36.6062 28.376 34.5737L26.8205 38.2588ZM20.8728 36.0892C22.767 36.6649 24.8022 37.4068 26.8205 38.2588L28.376 34.5737C26.2421 33.6729 24.0758 32.882 22.0359 32.2621L20.8728 36.0892ZM20.4847 32.4264C20.2373 32.5635 20.1376 32.5886 20.1495 32.5857C20.1636 32.5823 20.4245 32.5202 20.7821 32.6576C21.1767 32.8092 21.3957 33.0886 21.4873 33.2575C21.5586 33.3888 21.5513 33.4456 21.5311 33.3209L17.5827 33.9615C17.6651 34.4694 17.9495 35.8543 19.3474 36.3914C19.9956 36.6405 20.6204 36.5873 21.0913 36.4732C21.56 36.3597 22.0098 36.1545 22.424 35.9249L20.4847 32.4264Z" fill="#D9D9D9" mask="url(#path-4-inside-1_240_44)"/>
<mask id="path-6-inside-2_240_44" fill="white">
<path fill-rule="evenodd" clip-rule="evenodd" d="M19.2038 24.3181C17.5815 23.9155 16.112 23.6624 14.9044 23.5993C14.3529 23.5705 13.8824 23.9942 13.8536 24.5457C13.8248 25.0973 14.2485 25.5677 14.8001 25.5966C15.9776 25.6581 17.4889 25.9327 19.1966 26.3801C19.1971 25.6712 19.1994 24.9806 19.2038 24.3181ZM35.0504 33.2668C36.4617 34.1676 37.7079 35.0924 38.7013 36.0093C39.1071 36.3839 39.7398 36.3586 40.1144 35.9528C40.489 35.547 40.4637 34.9143 40.0579 34.5397C38.7144 33.2996 36.9847 32.0734 35.0504 30.9166V33.2668Z"/>
</mask>
<path fill-rule="evenodd" clip-rule="evenodd" d="M19.2038 24.3181C17.5815 23.9155 16.112 23.6624 14.9044 23.5993C14.3529 23.5705 13.8824 23.9942 13.8536 24.5457C13.8248 25.0973 14.2485 25.5677 14.8001 25.5966C15.9776 25.6581 17.4889 25.9327 19.1966 26.3801C19.1971 25.6712 19.1994 24.9806 19.2038 24.3181ZM35.0504 33.2668C36.4617 34.1676 37.7079 35.0924 38.7013 36.0093C39.1071 36.3839 39.7398 36.3586 40.1144 35.9528C40.489 35.547 40.4637 34.9143 40.0579 34.5397C38.7144 33.2996 36.9847 32.0734 35.0504 30.9166V33.2668Z" fill="#D9D9D9"/>
<path d="M14.9044 23.5993L14.8001 25.5966L14.8001 25.5966L14.9044 23.5993ZM19.2038 24.3181L21.2037 24.3313L21.2142 22.7563L19.6855 22.3769L19.2038 24.3181ZM13.8536 24.5457L15.8509 24.6501L15.8509 24.6501L13.8536 24.5457ZM14.8001 25.5966L14.6957 27.5938L14.6957 27.5938L14.8001 25.5966ZM19.1966 26.3801L18.6898 28.3148L21.1949 28.9711L21.1966 26.3814L19.1966 26.3801ZM38.7013 36.0093L40.0579 34.5397L40.0579 34.5397L38.7013 36.0093ZM35.0504 33.2668H33.0504V34.363L33.9744 34.9527L35.0504 33.2668ZM40.0579 34.5397L38.7013 36.0093L38.7013 36.0093L40.0579 34.5397ZM35.0504 30.9166L36.0769 29.2001L33.0504 27.3902V30.9166H35.0504ZM14.8001 25.5966C15.8342 25.6506 17.1686 25.8737 18.7221 26.2592L19.6855 22.3769C17.9943 21.9573 16.3898 21.6742 15.0088 21.602L14.8001 25.5966ZM15.8509 24.6501C15.8221 25.2016 15.3516 25.6254 14.8001 25.5966L15.0088 21.602C13.3542 21.5155 11.9428 22.7868 11.8563 24.4414L15.8509 24.6501ZM14.9045 23.5993C15.456 23.6281 15.8797 24.0986 15.8509 24.6501L11.8563 24.4414C11.7699 26.0959 13.0411 27.5074 14.6957 27.5938L14.9045 23.5993ZM19.7035 24.4454C17.9304 23.9809 16.2726 23.6708 14.9044 23.5993L14.6957 27.5938C15.6826 27.6454 17.0473 27.8845 18.6898 28.3148L19.7035 24.4454ZM21.1966 26.3814C21.1971 25.6759 21.1994 24.9893 21.2037 24.3313L17.2038 24.3048C17.1994 24.9719 17.1971 25.6666 17.1966 26.3788L21.1966 26.3814ZM40.0579 34.5397C38.9522 33.5191 37.6035 32.5236 36.1263 31.5809L33.9744 34.9527C35.32 35.8115 36.4636 36.6656 37.3448 37.4789L40.0579 34.5397ZM38.6448 34.5962C39.0194 34.1904 39.652 34.1651 40.0579 34.5397L37.3447 37.4789C38.5622 38.6027 40.4602 38.5268 41.584 37.3094L38.6448 34.5962ZM38.7013 36.0093C38.2955 35.6347 38.2702 35.0021 38.6448 34.5962L41.584 37.3094C42.7078 36.0919 42.6319 34.1939 41.4144 33.0701L38.7013 36.0093ZM34.0239 32.6331C35.8859 33.7466 37.492 34.893 38.7013 36.0093L41.4144 33.0701C39.9369 31.7062 38.0836 30.4002 36.0769 29.2001L34.0239 32.6331ZM33.0504 30.9166V33.2668H37.0504V30.9166H33.0504Z" fill="#D9D9D9" mask="url(#path-6-inside-2_240_44)"/>
<mask id="path-8-inside-3_240_44" fill="white">
<path fill-rule="evenodd" clip-rule="evenodd" d="M20.3713 15.9693C18.2867 15.3881 16.396 15.0205 14.9048 14.9425C14.3532 14.9137 13.8828 15.3375 13.8539 15.889C13.8251 16.4405 14.2488 16.911 14.8004 16.9398C16.2377 17.0149 18.1722 17.4075 20.3543 18.0442C20.3575 17.3203 20.3631 16.6247 20.3713 15.9693ZM36.2045 25.378C37.1455 26.0323 37.9887 26.6945 38.7016 27.3526C39.1074 27.7272 39.7401 27.7019 40.1147 27.2961C40.4893 26.8902 40.464 26.2576 40.0582 25.883C38.9881 24.8952 37.6729 23.9163 36.2045 22.9742V25.378Z"/>
</mask>
<path fill-rule="evenodd" clip-rule="evenodd" d="M20.3713 15.9693C18.2867 15.3881 16.396 15.0205 14.9048 14.9425C14.3532 14.9137 13.8828 15.3375 13.8539 15.889C13.8251 16.4405 14.2488 16.911 14.8004 16.9398C16.2377 17.0149 18.1722 17.4075 20.3543 18.0442C20.3575 17.3203 20.3631 16.6247 20.3713 15.9693ZM36.2045 25.378C37.1455 26.0323 37.9887 26.6945 38.7016 27.3526C39.1074 27.7272 39.7401 27.7019 40.1147 27.2961C40.4893 26.8902 40.464 26.2576 40.0582 25.883C38.9881 24.8952 37.6729 23.9163 36.2045 22.9742V25.378Z" fill="#D9D9D9"/>
<path d="M14.9048 14.9425L14.8004 16.9398L14.8004 16.9398L14.9048 14.9425ZM20.3713 15.9693L22.3712 15.9944L22.3905 14.456L20.9084 14.0428L20.3713 15.9693ZM13.8539 15.889L15.8512 15.9934L15.8512 15.9934L13.8539 15.889ZM14.8004 16.9398L14.696 18.9371L14.696 18.9371L14.8004 16.9398ZM20.3543 18.0442L19.7941 19.9642L22.3423 20.7077L22.3543 18.0532L20.3543 18.0442ZM38.7016 27.3526L40.0582 25.883L40.0582 25.883L38.7016 27.3526ZM36.2045 25.378H34.2045V26.4232L35.0626 27.02L36.2045 25.378ZM40.0582 25.883L38.7016 27.3526L38.7016 27.3526L40.0582 25.883ZM36.2045 22.9742L37.2845 21.2908L34.2045 19.3149V22.9742H36.2045ZM14.8004 16.9398C16.0853 17.007 17.818 17.3337 19.8342 17.8958L20.9084 14.0428C18.7553 13.4425 16.7067 13.034 15.0091 12.9453L14.8004 16.9398ZM15.8512 15.9934C15.8224 16.5449 15.3519 16.9686 14.8004 16.9398L15.0091 12.9453C13.3545 12.8588 11.9431 14.13 11.8567 15.7846L15.8512 15.9934ZM14.9048 14.9425C15.4563 14.9714 15.88 15.4418 15.8512 15.9934L11.8567 15.7846C11.7702 17.4392 13.0414 18.8506 14.696 18.9371L14.9048 14.9425ZM20.9145 16.1243C18.6688 15.469 16.565 15.0293 14.9048 14.9425L14.696 18.9371C15.9103 19.0006 17.6756 19.346 19.7941 19.9642L20.9145 16.1243ZM22.3543 18.0532C22.3575 17.3336 22.363 16.6435 22.3712 15.9944L18.3715 15.9442C18.3632 16.6059 18.3576 17.307 18.3543 18.0352L22.3543 18.0532ZM40.0582 25.883C39.2624 25.1484 38.3435 24.4294 37.3464 23.736L35.0626 27.02C35.9475 27.6353 36.7149 28.2406 37.3451 28.8222L40.0582 25.883ZM38.6451 25.9395C39.0197 25.5337 39.6524 25.5084 40.0582 25.883L37.3451 28.8222C38.5625 29.946 40.4605 29.8701 41.5843 28.6526L38.6451 25.9395ZM38.7016 27.3526C38.2958 26.978 38.2705 26.3453 38.6451 25.9395L41.5843 28.6526C42.7081 27.4352 42.6322 25.5372 41.4147 24.4134L38.7016 27.3526ZM35.1245 24.6575C36.5263 25.5568 37.7411 26.4659 38.7016 27.3526L41.4147 24.4134C40.2351 23.3245 38.8196 22.2757 37.2845 21.2908L35.1245 24.6575ZM34.2045 22.9742V25.378H38.2045V22.9742H34.2045Z" fill="#D9D9D9" mask="url(#path-8-inside-3_240_44)"/>
<path d="M39.3784 52.5881C33.7515 47.3941 20.7256 42.2185 14.8511 41.9115" stroke="#D9D9D9" stroke-width="2" stroke-linecap="round"/>
<path d="M50.0542 44.5082C55.681 39.3142 68.7069 34.1386 74.5815 33.8316" stroke="#D9D9D9" stroke-width="2" stroke-linecap="round"/>
<path d="M50.0548 35.2744C55.6817 30.0804 68.7076 24.9049 74.5821 24.5978" stroke="#D9D9D9" stroke-width="2" stroke-linecap="round"/>
<path d="M50.0538 26.6178C55.6807 21.4237 68.7065 16.2482 74.5811 15.9412" stroke="#D9D9D9" stroke-width="2" stroke-linecap="round"/>
<path d="M50.0549 52.5882C55.6818 47.3942 68.7077 42.2186 74.5822 41.9116" stroke="#D9D9D9" stroke-width="2" stroke-linecap="round"/>
<path fill-rule="evenodd" clip-rule="evenodd" d="M35.1941 15.3614C35.8439 15.7382 36.472 16.1197 37.0743 16.5044C39.844 18.2736 41.934 20.0277 43.1131 21.6093L44.4806 23.4438H43.7166V62.1105H45.7166V23.4438H44.9525L46.3201 21.6093C47.4992 20.0275 49.5889 18.2735 52.3577 16.5043C55.0952 14.7552 58.3666 13.0728 61.7761 11.5945C68.3917 8.72614 75.2505 6.74406 79.5076 6.42891V47.9926C79.466 48.0129 79.4308 48.0229 79.4113 48.0266C73.6862 49.0891 65.5388 52.1342 58.4718 55.523C54.922 57.2253 51.5853 59.0425 48.9108 60.7834C47.3231 61.8169 45.8563 62.8933 44.7166 63.9679C43.5769 62.8933 42.1101 61.8169 40.5224 60.7834C37.8479 59.0425 34.5111 57.2253 30.9613 55.523C23.8943 52.1342 15.747 49.0891 10.0218 48.0266C10.0023 48.0229 9.96711 48.0129 9.92554 47.9926V6.42952C12.3714 6.61167 15.6745 7.34296 19.2964 8.4757C18.7633 6.38922 17.2399 6.63177 15.7165 7.28465L15.8704 5.43856C13.451 4.84518 11.266 4.4792 9.50432 4.40095C8.60868 4.36117 7.92554 4.94721 7.92554 5.84374V48.2616C7.92554 49.1348 8.79838 49.8337 9.65688 49.993C19.5818 51.8349 37.6818 60.0658 43.3705 65.4466C43.9602 66.0044 44.4165 66.5316 44.7166 67.0179C45.0166 66.5316 45.4729 66.0044 46.0627 65.4466C51.7514 60.0658 69.8513 51.8349 79.7763 49.993C80.6348 49.8337 81.5076 49.1348 81.5076 48.2616V5.84374C81.5076 4.94721 80.8162 4.36117 79.9205 4.40095C71.41 4.77896 53.0298 11.8716 46.0574 18.8777C45.5464 19.3911 45.0966 19.9041 44.7166 20.414C44.3365 19.9041 43.8868 19.3912 43.3757 18.8777C41.402 16.8947 38.5139 14.9048 35.1941 13.0621V15.3614Z" fill="#737373"/>
<path d="M19.4676 10.7474C19.7562 5.69761 17.7363 5.84189 15.7164 6.70756L15.371 6.50441C14.4316 5.95181 14.2513 4.66862 15.0019 3.87845C16.669 2.12351 19.2039 1.49731 21.4965 2.27411L31.1195 5.53481C33.5551 6.36011 35.194 8.64579 35.194 11.2174V35.1364C35.194 37.0774 32.7066 37.8797 31.5725 36.3045C29.3959 33.2816 24.9847 32.9883 22.3814 35.6525C20.1695 37.8644 18.695 35.6525 19.4676 31.9563C20.629 26.4006 19.2368 14.7872 19.4676 10.7474Z" stroke="#737373" stroke-width="3"/>
</svg>
