<svg width="20" height="23" viewBox="0 0 20 23" fill="none" xmlns="http://www.w3.org/2000/svg">
<mask id="path-1-inside-1_108_24" fill="white">
<path fill-rule="evenodd" clip-rule="evenodd" d="M0 2C0 0.89543 0.895431 0 2 0H2.71818V23H2C0.895429 23 0 22.1046 0 21V2ZM3.97273 23V0H12.5455V7.94546L14.8455 5.75L17.1455 7.94546V0H17.8636C18.9682 0 19.8636 0.895431 19.8636 2V21C19.8636 22.1046 18.9682 23 17.8636 23H3.97273Z"/>
</mask>
<path d="M2.71818 0H4.71818V-2H2.71818V0ZM2.71818 23V25H4.71818V23H2.71818ZM3.97273 23H1.97273V25H3.97273V23ZM3.97273 0V-2H1.97273V0H3.97273ZM12.5455 0H14.5455V-2H12.5455V0ZM12.5455 7.94546H10.5455V12.6194L13.9264 9.39217L12.5455 7.94546ZM14.8455 5.75L16.2264 4.30329L14.8455 2.98511L13.4645 4.30329L14.8455 5.75ZM17.1455 7.94546L15.7645 9.39217L19.1455 12.6194V7.94546H17.1455ZM17.1455 0V-2H15.1455V0H17.1455ZM2 2V2V-2C-0.209138 -2 -2 -0.20914 -2 2H2ZM2 2H2.71818V-2H2V2ZM0.718182 0V23H4.71818V0H0.718182ZM2.71818 21H2V25H2.71818V21ZM2 21H2H-2C-2 23.2091 -0.209142 25 2 25V21ZM2 21V2H-2V21H2ZM5.97273 23V0H1.97273V23H5.97273ZM3.97273 2H12.5455V-2H3.97273V2ZM10.5455 0V7.94546H14.5455V0H10.5455ZM13.9264 9.39217L16.2264 7.19671L13.4645 4.30329L11.1645 6.49875L13.9264 9.39217ZM13.4645 7.19671L15.7645 9.39217L18.5264 6.49875L16.2264 4.30329L13.4645 7.19671ZM19.1455 7.94546V0H15.1455V7.94546H19.1455ZM17.1455 2H17.8636V-2H17.1455V2ZM17.8636 2H17.8636H21.8636C21.8636 -0.209137 20.0728 -2 17.8636 -2V2ZM17.8636 2V21H21.8636V2H17.8636ZM17.8636 21V25C20.0728 25 21.8636 23.2091 21.8636 21H17.8636ZM17.8636 21H3.97273V25H17.8636V21Z" fill="black" mask="url(#path-1-inside-1_108_24)"/>
</svg>
